{"title":"The Bag Man 2014 WEBrip XVID AC3 ACAB","uid":9703349,"size":1722741797,"categoryP":"video","categoryS":"movies","magnet":"?xt=urn:btih:ee18759259ef7c313d773994964a3006fa79651a&amp;dn=The+Bag+Man+2014+WEBrip+XVID+AC3+ACAB&amp;tr=udp%3A%2F%2Ftracker.openbittorrent.com%3A80&amp;tr=udp%3A%2F%2Fopen.demonii.com%3A1337&amp;tr=udp%3A%2F%2Ftracker.coppersurfer.tk%3A6969&amp;tr=udp%3A%2F%2Fexodus.desync.com%3A6969","seeders":1,"leechers":0,"uploader":"AliBaloch","files":3,"time":1394036009,"description":"[img]http://s1.postimg.org/4a5hmf0wf/vxvxcvx.jpg[/img]\n\n &lt;a href=&quot;\nhttp://www.imdb.com/title/tt2212008/&quot; rel=&quot;nofollow&quot; target=&quot;_NEW&quot;&gt;\nhttp://www.imdb.com/title/tt2212008/&lt;/a&gt;\n\nFormat : AVI\nFormat/Info : Audio Video Interleave\nFile size : 1.58 GiB\nDuration : 1h 48mn\nOverall bit rate : 2 088 Kbps\nWriting library : VirtualDub build 30091/release\n\nVideo\nID : 0\nFormat : MPEG-4 Visual\nFormat profile : Advanced Simple@L5\nFormat settings, BVOP : 2\nFormat settings, QPel : No\nFormat settings, GMC : No warppoints\nFormat settings, Matrix : Default (H.263)\nMuxing mode : Packed bitstream\nCodec ID : XVID\nCodec ID/Hint : XviD\nDuration : 1h 48mn\nBit rate : 1 695 Kbps\nWidth : 720 pixels\nHeight : 304 pixels\nDisplay aspect ratio : 2.35:1\nFrame rate : 23.976 fps\nColor space : YUV\nChroma subsampling : 4:2:0\nBit depth : 8 bits\nScan type : Progressive\nCompression mode : Lossy\nBits/(Pixel*Frame) : 0.323\nStream size : 1.29 GiB (81%)\nWriting library : XviD 1.2.1 (UTC 2008-12-04)\n\nAudio\nID : 1\nFormat : AC-3\nFormat/Info : Audio Coding 3\nMode extension : CM (complete main)\nFormat settings, Endianness : Big\nCodec ID : 2000\nDuration : 1h 48mn\nBit rate mode : Constant\nBit rate : 384 Kbps\nChannel(s) : 6 channels\nChannel positions : Front: L C R, Side: L R, LFE\nSampling rate : 48.0 KHz\nBit depth : 16 bits\nCompression mode : Lossy\nStream size : 298 MiB (18%)\n\n[img]http://s1.postimg.org/r1ek8tlxr/vbbvcc.png[/img]\n\n[img]http://s1.postimg.org/6sr6n3mmn/cvxvx.png[/img]\n\n[img]http://s1.postimg.org/uz1ty88r3/vcvxvx.png[/img]\n\n[img]http://s1.postimg.org/9dwramc0f/vcxvxv.png[/img]","torrent":{"xt":"urn:btih:ee18759259ef7c313d773994964a3006fa79651a","amp;dn":"The+Bag+Man+2014+WEBrip+XVID+AC3+ACAB","amp;tr":["udp%3A%2F%2Ftracker.openbittorrent.com%3A80","udp%3A%2F%2Fopen.demonii.com%3A1337","udp%3A%2F%2Ftracker.coppersurfer.tk%3A6969","udp%3A%2F%2Fexodus.desync.com%3A6969"],"infoHash":"ee18759259ef7c313d773994964a3006fa79651a","infoHashBuffer":{"type":"Buffer","data":[238,24,117,146,89,239,124,49,61,119,57,148,150,74,48,6,250,121,101,26]},"announce":[],"urlList":[]}}